<svg width="78" height="73" viewBox="0 0 78 73" fill="none" xmlns="http://www.w3.org/2000/svg">
<ellipse cx="38.8397" cy="36.5" rx="38.8397" ry="36.5" fill="#D9D9D9"/>
<path d="M39.3077 36.2326C46.9879 36.2326 53.2125 30.008 53.2125 22.3278C53.2125 14.6476 46.9879 8.42307 39.3077 8.42307C31.6275 8.42307 25.4029 14.6476 25.4029 22.3278C25.4029 30.008 31.6275 36.2326 39.3077 36.2326ZM49.041 39.7088H47.2269C44.8153 40.8168 42.1321 41.4469 39.3077 41.4469C36.4833 41.4469 33.811 40.8168 31.3885 39.7088H29.5744C21.5139 39.7088 14.9744 46.2484 14.9744 54.3088V58.8278C14.9744 61.7065 17.3099 64.0421 20.1887 64.0421H58.4267C61.3055 64.0421 63.641 61.7065 63.641 58.8278V54.3088C63.641 46.2484 57.1014 39.7088 49.041 39.7088Z" fill="#635F5F"/>
</svg>
