<svg width="74" height="70" viewBox="0 0 74 70" fill="none" xmlns="http://www.w3.org/2000/svg">
<ellipse cx="37" cy="35.2289" rx="37" ry="34.7711" fill="#D9D9D9"/>
<path d="M37.4459 34.9742C44.7623 34.9742 50.692 29.0445 50.692 21.7281C50.692 14.4116 44.7623 8.48193 37.4459 8.48193C30.1294 8.48193 24.1997 14.4116 24.1997 21.7281C24.1997 29.0445 30.1294 34.9742 37.4459 34.9742ZM46.7181 38.2857H44.9899C42.6926 39.3413 40.1365 39.9415 37.4459 39.9415C34.7552 39.9415 32.2095 39.3413 29.9018 38.2857H28.1736C20.495 38.2857 14.2651 44.5155 14.2651 52.1942V56.4991C14.2651 59.2415 16.4901 61.4664 19.2324 61.4664H55.6593C58.4016 61.4664 60.6266 59.2415 60.6266 56.4991V52.1942C60.6266 44.5155 54.3968 38.2857 46.7181 38.2857Z" fill="#635F5F"/>
</svg>
