<svg width="83" height="78" viewBox="0 0 83 78" fill="none" xmlns="http://www.w3.org/2000/svg">
<ellipse cx="41.5" cy="39" rx="41.5" ry="39" fill="#D9D9D9"/>
<path d="M42 38.7143C50.2062 38.7143 56.8571 32.0634 56.8571 23.8571C56.8571 15.6509 50.2062 9 42 9C33.7937 9 27.1429 15.6509 27.1429 23.8571C27.1429 32.0634 33.7937 38.7143 42 38.7143ZM52.4 42.4286H50.4616C47.8848 43.6125 45.0179 44.2857 42 44.2857C38.9821 44.2857 36.1268 43.6125 33.5384 42.4286H31.6C22.9875 42.4286 16 49.4161 16 58.0286V62.8571C16 65.933 18.4955 68.4286 21.5714 68.4286H62.4286C65.5045 68.4286 68 65.933 68 62.8571V58.0286C68 49.4161 61.0125 42.4286 52.4 42.4286Z" fill="#635F5F"/>
</svg>
