<svg width="70" height="65" viewBox="0 0 70 65" fill="none" xmlns="http://www.w3.org/2000/svg">
<ellipse cx="34.5833" cy="32.5" rx="34.5833" ry="32.5" fill="#D9D9D9"/>
<path d="M34.9999 32.2619C41.8385 32.2619 47.3809 26.7195 47.3809 19.881C47.3809 13.0424 41.8385 7.5 34.9999 7.5C28.1614 7.5 22.619 13.0424 22.619 19.881C22.619 26.7195 28.1614 32.2619 34.9999 32.2619ZM43.6666 35.3571H42.0513C39.9039 36.3437 37.5148 36.9048 34.9999 36.9048C32.485 36.9048 30.1056 36.3437 27.9486 35.3571H26.3333C19.1562 35.3571 13.3333 41.1801 13.3333 48.3571V52.381C13.3333 54.9442 15.4129 57.0238 17.9761 57.0238H52.0237C54.587 57.0238 56.6666 54.9442 56.6666 52.381V48.3571C56.6666 41.1801 50.8437 35.3571 43.6666 35.3571Z" fill="#635F5F"/>
</svg>
