<svg width="73" height="68" viewBox="0 0 73 68" fill="none" xmlns="http://www.w3.org/2000/svg">
<ellipse cx="36.1795" cy="34" rx="36.1795" ry="34" fill="#D9D9D9"/>
<path d="M36.6154 33.7509C43.7696 33.7509 49.5678 27.9527 49.5678 20.7985C49.5678 13.6444 43.7696 7.84615 36.6154 7.84615C29.4612 7.84615 23.663 13.6444 23.663 20.7985C23.663 27.9527 29.4612 33.7509 36.6154 33.7509ZM45.6821 36.989H43.9922C41.7458 38.0212 39.2463 38.6081 36.6154 38.6081C33.9844 38.6081 31.4952 38.0212 29.2386 36.989H27.5487C20.0404 36.989 13.9487 43.0807 13.9487 50.589V54.7985C13.9487 57.4801 16.1243 59.6557 18.8059 59.6557H54.4249C57.1065 59.6557 59.2821 57.4801 59.2821 54.7985V50.589C59.2821 43.0807 53.1904 36.989 45.6821 36.989Z" fill="#635F5F"/>
</svg>
