<svg width="25" height="25" viewBox="0 0 25 25" fill="none" xmlns="http://www.w3.org/2000/svg">
<path d="M0 12.1094C0 5.41992 5.41992 0 12.1094 0C18.7988 0 24.2188 5.41992 24.2188 12.1094C24.2188 18.7988 18.7988 24.2188 12.1094 24.2188C5.41992 24.2188 0 18.7988 0 12.1094ZM7.01172 13.5205L10.5469 9.83398V18.75C10.5469 19.3994 11.0693 19.9219 11.7188 19.9219H12.5C13.1494 19.9219 13.6719 19.3994 13.6719 18.75V9.83398L17.207 13.5205C17.6611 13.9941 18.418 14.0039 18.8818 13.54L19.4141 13.0029C19.873 12.5439 19.873 11.8018 19.4141 11.3477L12.9395 4.86816C12.4805 4.40918 11.7383 4.40918 11.2842 4.86816L4.7998 11.3477C4.34082 11.8066 4.34082 12.5488 4.7998 13.0029L5.33203 13.54C5.80078 14.0039 6.55762 13.9941 7.01172 13.5205Z" fill="white"/>
</svg>
