<svg width="36" height="36" viewBox="0 0 36 36" fill="none" xmlns="http://www.w3.org/2000/svg">
<path d="M18 36C8.05645 36 0 27.9435 0 18C0 8.05645 8.05645 0 18 0C27.9435 0 36 8.05645 36 18C36 27.9435 27.9435 36 18 36ZM26.4194 14.8065H18V9.66048C18 8.88387 17.0565 8.49194 16.5121 9.04355L8.21613 17.3831C7.875 17.7242 7.875 18.2685 8.21613 18.6097L16.5121 26.9492C17.0637 27.5008 18 27.1089 18 26.3323V21.1935H26.4194C26.8984 21.1935 27.2903 20.8016 27.2903 20.3226V15.6774C27.2903 15.1984 26.8984 14.8065 26.4194 14.8065Z" fill="#01A98C"/>
</svg>
